<?xml version="1.0" encoding="utf-8"?>
<!-- Generator: Adobe Illustrator 24.1.1, SVG Export Plug-In . SVG Version: 6.00 Build 0)  -->
<svg version="1.1" id="Capa_1" xmlns="http://www.w3.org/2000/svg" xmlns:xlink="http://www.w3.org/1999/xlink" x="0px" y="0px"
	 viewBox="0 0 640 480" style="enable-background:new 0 0 640 480;" xml:space="preserve">
<style type="text/css">
	.st0{fill-rule:evenodd;clip-rule:evenodd;fill:#FFFFFF;stroke:#FFFFFF;stroke-width:3;stroke-miterlimit:10;}
	
		.st1{clip-path:url(#SVGID_2_);fill-rule:evenodd;clip-rule:evenodd;fill:#0096F5;stroke:#FFFFFF;stroke-width:3;stroke-miterlimit:10;}
	
		.st2{clip-path:url(#SVGID_2_);fill-rule:evenodd;clip-rule:evenodd;fill:#F9FAFB;stroke:#FFFFFF;stroke-width:3;stroke-miterlimit:10;}
	.st3{fill-rule:evenodd;clip-rule:evenodd;fill:#0096F5;stroke:#FFFFFF;stroke-width:3;stroke-miterlimit:10;}
</style>
<g>
	<ellipse class="st0" cx="317.6" cy="224.4" rx="148" ry="143.6"/>
	<g>
		<defs>
			<path id="SVGID_1_" d="M317.6,80.7c81.7,0,148,64.4,148,143.6S399,372.6,317.3,372.6c-81.7,0-147.7-69-147.7-148.2
				S235.9,80.7,317.6,80.7z"/>
		</defs>
		<clipPath id="SVGID_2_">
			<use xlink:href="#SVGID_1_"  style="overflow:visible;"/>
		</clipPath>
		<polygon class="st1" points="403.6,260.3 317.5,231.6 232.1,260.3 232.1,380.8 403.6,380.8 		"/>
		<path class="st2" d="M339.1,326.6c0-10.9-9.1-19.7-20.3-19.7c-11.2,0-20.3,8.8-20.3,19.7v59.4c0,10.9,9.1,19.7,20.3,19.7
			c11.2,0,20.3-8.8,20.3-19.7V326.6z"/>
		
			<use xlink:href="#SVGID_1_"  style="overflow:visible;fill-rule:evenodd;clip-rule:evenodd;fill:none;stroke:#FFFFFF;stroke-width:3;stroke-miterlimit:10;"/>
	</g>
	<polygon class="st3" points="317.8,149.3 276.5,170.8 276.9,239.5 317.4,227.8 358.7,238.9 358.7,170.8 	"/>
	<polygon class="st3" points="306,117.9 314.5,117.9 314.5,106.6 320.8,106.6 320.7,117.9 329.3,117.9 329.3,124 320.7,124 
		320.7,145.9 317.6,144.3 314.5,145.9 314.5,124 306,124 	"/>
	<path class="st0" d="M252.6,303.4v-14.7c0-5.2,4.3-9.4,9.7-9.4s9.7,4.2,9.7,9.4v14.7H252.6z"/>
	<path class="st0" d="M308.2,203.6v-14.7c0-5.2,4.3-9.4,9.7-9.4c5.3,0,9.7,4.2,9.7,9.4v14.7H308.2z"/>
	<path class="st0" d="M364.7,303.4v-14.7c0-5.2,4.3-9.4,9.7-9.4c5.3,0,9.7,4.2,9.7,9.4v14.7H364.7z"/>
</g>
</svg>
